<?xml version="1.0" standalone="no"?>
<!DOCTYPE svg PUBLIC "-//W3C//DTD SVG 20010904//EN"
 "http://www.w3.org/TR/2001/REC-SVG-20010904/DTD/svg10.dtd">
<svg version="1.0" xmlns="http://www.w3.org/2000/svg"
 width="128.000000pt" height="128.000000pt" viewBox="0 0 128.000000 128.000000"
 preserveAspectRatio="xMidYMid meet">

<g transform="translate(0.000000,128.000000) scale(0.100000,-0.100000)"
fill="#000000" stroke="none">
<path d="M530 1196 c-174 -38 -317 -192 -351 -380 -21 -114 12 -234 110 -400
54 -92 175 -226 237 -262 109 -64 229 -5 366 180 137 185 197 384 152 511 -7
22 -12 29 -9 15 16 -95 16 -114 1 -183 -53 -237 -283 -530 -413 -526 -15 0
-22 3 -15 6 22 9 13 23 -15 24 -29 1 -23 4 40 14 56 9 45 23 -24 31 -58 7 -64
10 -126 71 -68 67 -68 68 10 46 24 -6 57 24 57 52 0 63 -129 188 -218 210 -43
11 -48 15 -60 56 -14 47 -12 247 3 283 6 14 5 17 -3 12 -7 -4 -2 10 10 31 35
60 108 127 173 159 55 27 68 29 170 29 100 0 115 -3 167 -28 32 -16 84 -51
115 -80 l58 -51 -55 58 c-64 67 -148 112 -235 126 -71 12 -75 12 -145 -4z
m-289 -303 c-12 -20 -14 -14 -5 12 4 9 9 14 11 11 3 -2 0 -13 -6 -23z m-14
-45 c-3 -8 -6 -5 -6 6 -1 11 2 17 5 13 3 -3 4 -12 1 -19z m-10 -50 c-3 -7 -5
-2 -5 12 0 14 2 19 5 13 2 -7 2 -19 0 -25z m-10 -60 c-3 -8 -6 -5 -6 6 -1 11
2 17 5 13 3 -3 4 -12 1 -19z m10 -60 c-3 -8 -6 -5 -6 6 -1 11 2 17 5 13 3 -3
4 -12 1 -19z m44 -102 c5 3 9 -4 9 -15 0 -10 3 -28 6 -38 3 -10 -4 -2 -15 17
-11 19 -20 40 -20 45 0 6 3 4 6 -3 2 -6 9 -10 14 -6z m119 -11 c0 -9 -9 -15
-25 -15 -16 0 -25 6 -25 15 0 9 9 15 25 15 16 0 25 -6 25 -15z m-35 -147 c22
-23 31 -36 21 -28 -11 8 -22 15 -25 15 -3 0 -5 3 -3 8 1 4 -2 7 -8 7 -5 0 -14
9 -20 20 -16 29 -9 25 35 -22z m46 -85 c13 -16 12 -17 -3 -4 -17 13 -22 21
-14 21 2 0 10 -8 17 -17z m64 -73 c27 -27 47 -50 44 -50 -3 0 -27 23 -54 50
-27 28 -47 50 -44 50 3 0 27 -22 54 -50z"/>
<path d="M834 571 c-101 -58 -178 -174 -144 -216 52 -63 260 96 260 198 0 54
-42 60 -116 18z m71 -11 c0 -18 -33 -26 -47 -12 -6 6 -7 15 -3 22 10 16 50 8
50 -10z"/>
<path d="M596 301 c-4 -7 -5 -15 -2 -18 9 -9 19 4 14 18 -4 11 -6 11 -12 0z"/>
<path d="M630 296 c0 -9 5 -16 10 -16 6 0 10 4 10 9 0 6 -4 13 -10 16 -5 3
-10 -1 -10 -9z"/>
</g>
</svg>
